<svg width="808" height="102" viewBox="0 0 808 102" fill="none" xmlns="http://www.w3.org/2000/svg">
<path d="M0 0H786.8C791.129 0 793.5 5.17697 790.727 8.50196C767.38 36.4965 701.564 122.603 798.031 97.4531C912.718 67.5527 0 97.4531 0 97.4531V0Z" fill="#08D565"/>
<path d="M54.8 21.12V63H46.4V35.76L35.18 63H28.82L17.54 35.76V63H9.14V21.12H18.68L32 52.26L45.32 21.12H54.8ZM94.0048 29.76L73.4248 78.72H64.4848L71.6848 62.16L58.3648 29.76H67.7848L76.3648 52.98L85.0648 29.76H94.0048ZM136.71 55.02H120.03L117.27 63H108.45L123.51 21.06H133.29L148.35 63H139.47L136.71 55.02ZM134.43 48.3L128.37 30.78L122.31 48.3H134.43ZM171.499 29.28C175.459 29.28 178.659 30.54 181.099 33.06C183.539 35.54 184.759 39.02 184.759 43.5V63H176.359V44.64C176.359 42 175.699 39.98 174.379 38.58C173.059 37.14 171.259 36.42 168.979 36.42C166.659 36.42 164.819 37.14 163.459 38.58C162.139 39.98 161.479 42 161.479 44.64V63H153.079V29.76H161.479V33.9C162.599 32.46 164.019 31.34 165.739 30.54C167.499 29.7 169.419 29.28 171.499 29.28ZM189.687 46.26C189.687 42.9 190.347 39.92 191.667 37.32C193.027 34.72 194.847 32.72 197.127 31.32C199.447 29.92 202.027 29.22 204.867 29.22C207.347 29.22 209.507 29.72 211.347 30.72C213.227 31.72 214.727 32.98 215.847 34.5V29.76H224.307V63H215.847V58.14C214.767 59.7 213.267 61 211.347 62.04C209.467 63.04 207.287 63.54 204.807 63.54C202.007 63.54 199.447 62.82 197.127 61.38C194.847 59.94 193.027 57.92 191.667 55.32C190.347 52.68 189.687 49.66 189.687 46.26ZM215.847 46.38C215.847 44.34 215.447 42.6 214.647 41.16C213.847 39.68 212.767 38.56 211.407 37.8C210.047 37 208.587 36.6 207.027 36.6C205.467 36.6 204.027 36.98 202.707 37.74C201.387 38.5 200.307 39.62 199.467 41.1C198.667 42.54 198.267 44.26 198.267 46.26C198.267 48.26 198.667 50.02 199.467 51.54C200.307 53.02 201.387 54.16 202.707 54.96C204.067 55.76 205.507 56.16 207.027 56.16C208.587 56.16 210.047 55.78 211.407 55.02C212.767 54.22 213.847 53.1 214.647 51.66C215.447 50.18 215.847 48.42 215.847 46.38ZM240.011 18.6V63H231.611V18.6H240.011ZM279.21 29.76L258.63 78.72H249.69L256.89 62.16L243.57 29.76H252.99L261.57 52.98L270.27 29.76H279.21ZM292.618 36.66V52.74C292.618 53.86 292.878 54.68 293.398 55.2C293.958 55.68 294.878 55.92 296.158 55.92H300.058V63H294.778C287.698 63 284.158 59.56 284.158 52.68V36.66H280.198V29.76H284.158V21.54H292.618V29.76H300.058V36.66H292.618ZM309.46 25.8C307.98 25.8 306.74 25.34 305.74 24.42C304.78 23.46 304.3 22.28 304.3 20.88C304.3 19.48 304.78 18.32 305.74 17.4C306.74 16.44 307.98 15.96 309.46 15.96C310.94 15.96 312.16 16.44 313.12 17.4C314.12 18.32 314.62 19.48 314.62 20.88C314.62 22.28 314.12 23.46 313.12 24.42C312.16 25.34 310.94 25.8 309.46 25.8ZM313.6 29.76V63H305.2V29.76H313.6ZM318.839 46.38C318.839 42.94 319.539 39.94 320.939 37.38C322.339 34.78 324.279 32.78 326.759 31.38C329.239 29.94 332.079 29.22 335.279 29.22C339.399 29.22 342.799 30.26 345.479 32.34C348.199 34.38 350.019 37.26 350.939 40.98H341.879C341.399 39.54 340.579 38.42 339.419 37.62C338.299 36.78 336.899 36.36 335.219 36.36C332.819 36.36 330.919 37.24 329.519 39C328.119 40.72 327.419 43.18 327.419 46.38C327.419 49.54 328.119 52 329.519 53.76C330.919 55.48 332.819 56.34 335.219 56.34C338.619 56.34 340.839 54.82 341.879 51.78H350.939C350.019 55.38 348.199 58.24 345.479 60.36C342.759 62.48 339.359 63.54 335.279 63.54C332.079 63.54 329.239 62.84 326.759 61.44C324.279 60 322.339 58 320.939 55.44C319.539 52.84 318.839 49.82 318.839 46.38ZM354.033 46.26C354.033 42.9 354.693 39.92 356.013 37.32C357.373 34.72 359.193 32.72 361.473 31.32C363.793 29.92 366.373 29.22 369.213 29.22C371.693 29.22 373.853 29.72 375.693 30.72C377.573 31.72 379.073 32.98 380.193 34.5V29.76H388.653V63H380.193V58.14C379.113 59.7 377.613 61 375.693 62.04C373.813 63.04 371.633 63.54 369.153 63.54C366.353 63.54 363.793 62.82 361.473 61.38C359.193 59.94 357.373 57.92 356.013 55.32C354.693 52.68 354.033 49.66 354.033 46.26ZM380.193 46.38C380.193 44.34 379.793 42.6 378.993 41.16C378.193 39.68 377.113 38.56 375.753 37.8C374.393 37 372.933 36.6 371.373 36.6C369.813 36.6 368.373 36.98 367.053 37.74C365.733 38.5 364.653 39.62 363.813 41.1C363.013 42.54 362.613 44.26 362.613 46.26C362.613 48.26 363.013 50.02 363.813 51.54C364.653 53.02 365.733 54.16 367.053 54.96C368.413 55.76 369.853 56.16 371.373 56.16C372.933 56.16 374.393 55.78 375.753 55.02C377.113 54.22 378.193 53.1 378.993 51.66C379.793 50.18 380.193 48.42 380.193 46.38ZM404.357 18.6V63H395.957V18.6H404.357ZM455.693 34.08C455.693 36.32 455.153 38.42 454.073 40.38C453.033 42.34 451.373 43.92 449.093 45.12C446.853 46.32 444.013 46.92 440.573 46.92H433.553V63H425.153V21.12H440.573C443.813 21.12 446.573 21.68 448.853 22.8C451.133 23.92 452.833 25.46 453.953 27.42C455.113 29.38 455.693 31.6 455.693 34.08ZM440.213 40.14C442.533 40.14 444.253 39.62 445.373 38.58C446.493 37.5 447.053 36 447.053 34.08C447.053 30 444.773 27.96 440.213 27.96H433.553V40.14H440.213ZM479.477 29.28C481.997 29.28 484.237 29.84 486.197 30.96C488.157 32.04 489.677 33.66 490.757 35.82C491.877 37.94 492.437 40.5 492.437 43.5V63H484.037V44.64C484.037 42 483.377 39.98 482.057 38.58C480.737 37.14 478.937 36.42 476.657 36.42C474.337 36.42 472.497 37.14 471.137 38.58C469.817 39.98 469.157 42 469.157 44.64V63H460.757V18.6H469.157V33.9C470.237 32.46 471.677 31.34 473.477 30.54C475.277 29.7 477.277 29.28 479.477 29.28ZM503.785 25.8C502.305 25.8 501.065 25.34 500.065 24.42C499.105 23.46 498.625 22.28 498.625 20.88C498.625 19.48 499.105 18.32 500.065 17.4C501.065 16.44 502.305 15.96 503.785 15.96C505.265 15.96 506.485 16.44 507.445 17.4C508.445 18.32 508.945 19.48 508.945 20.88C508.945 22.28 508.445 23.46 507.445 24.42C506.485 25.34 505.265 25.8 503.785 25.8ZM507.925 29.76V63H499.525V29.76H507.925ZM523.724 18.6V63H515.324V18.6H523.724ZM545.884 63.54C542.684 63.54 539.804 62.84 537.244 61.44C534.684 60 532.664 57.98 531.184 55.38C529.744 52.78 529.024 49.78 529.024 46.38C529.024 42.98 529.764 39.98 531.244 37.38C532.764 34.78 534.824 32.78 537.424 31.38C540.024 29.94 542.924 29.22 546.124 29.22C549.324 29.22 552.224 29.94 554.824 31.38C557.424 32.78 559.464 34.78 560.944 37.38C562.464 39.98 563.224 42.98 563.224 46.38C563.224 49.78 562.444 52.78 560.884 55.38C559.364 57.98 557.284 60 554.644 61.44C552.044 62.84 549.124 63.54 545.884 63.54ZM545.884 56.22C547.404 56.22 548.824 55.86 550.144 55.14C551.504 54.38 552.584 53.26 553.384 51.78C554.184 50.3 554.584 48.5 554.584 46.38C554.584 43.22 553.744 40.8 552.064 39.12C550.424 37.4 548.404 36.54 546.004 36.54C543.604 36.54 541.584 37.4 539.944 39.12C538.344 40.8 537.544 43.22 537.544 46.38C537.544 49.54 538.324 51.98 539.884 53.7C541.484 55.38 543.484 56.22 545.884 56.22ZM581.205 63.54C578.485 63.54 576.045 63.06 573.885 62.1C571.725 61.1 570.005 59.76 568.725 58.08C567.485 56.4 566.805 54.54 566.685 52.5H575.145C575.305 53.78 575.925 54.84 577.005 55.68C578.125 56.52 579.505 56.94 581.145 56.94C582.745 56.94 583.985 56.62 584.865 55.98C585.785 55.34 586.245 54.52 586.245 53.52C586.245 52.44 585.685 51.64 584.565 51.12C583.485 50.56 581.745 49.96 579.345 49.32C576.865 48.72 574.825 48.1 573.225 47.46C571.665 46.82 570.305 45.84 569.145 44.52C568.025 43.2 567.465 41.42 567.465 39.18C567.465 37.34 567.985 35.66 569.025 34.14C570.105 32.62 571.625 31.42 573.585 30.54C575.585 29.66 577.925 29.22 580.605 29.22C584.565 29.22 587.725 30.22 590.085 32.22C592.445 34.18 593.745 36.84 593.985 40.2H585.945C585.825 38.88 585.265 37.84 584.265 37.08C583.305 36.28 582.005 35.88 580.365 35.88C578.845 35.88 577.665 36.16 576.825 36.72C576.025 37.28 575.625 38.06 575.625 39.06C575.625 40.18 576.185 41.04 577.305 41.64C578.425 42.2 580.165 42.78 582.525 43.38C584.925 43.98 586.905 44.6 588.465 45.24C590.025 45.88 591.365 46.88 592.485 48.24C593.645 49.56 594.245 51.32 594.285 53.52C594.285 55.44 593.745 57.16 592.665 58.68C591.625 60.2 590.105 61.4 588.105 62.28C586.145 63.12 583.845 63.54 581.205 63.54ZM615.041 63.54C611.841 63.54 608.961 62.84 606.401 61.44C603.841 60 601.821 57.98 600.341 55.38C598.901 52.78 598.181 49.78 598.181 46.38C598.181 42.98 598.921 39.98 600.401 37.38C601.921 34.78 603.981 32.78 606.581 31.38C609.181 29.94 612.081 29.22 615.281 29.22C618.481 29.22 621.381 29.94 623.981 31.38C626.581 32.78 628.621 34.78 630.101 37.38C631.621 39.98 632.381 42.98 632.381 46.38C632.381 49.78 631.601 52.78 630.041 55.38C628.521 57.98 626.441 60 623.801 61.44C621.201 62.84 618.281 63.54 615.041 63.54ZM615.041 56.22C616.561 56.22 617.981 55.86 619.301 55.14C620.661 54.38 621.741 53.26 622.541 51.78C623.341 50.3 623.741 48.5 623.741 46.38C623.741 43.22 622.901 40.8 621.221 39.12C619.581 37.4 617.561 36.54 615.161 36.54C612.761 36.54 610.741 37.4 609.101 39.12C607.501 40.8 606.701 43.22 606.701 46.38C606.701 49.54 607.481 51.98 609.041 53.7C610.641 55.38 612.641 56.22 615.041 56.22ZM646.042 34.56C647.122 33.04 648.602 31.78 650.482 30.78C652.402 29.74 654.582 29.22 657.022 29.22C659.862 29.22 662.422 29.92 664.702 31.32C667.022 32.72 668.842 34.72 670.162 37.32C671.522 39.88 672.202 42.86 672.202 46.26C672.202 49.66 671.522 52.68 670.162 55.32C668.842 57.92 667.022 59.94 664.702 61.38C662.422 62.82 659.862 63.54 657.022 63.54C654.582 63.54 652.422 63.04 650.542 62.04C648.702 61.04 647.202 59.78 646.042 58.26V78.84H637.642V29.76H646.042V34.56ZM663.622 46.26C663.622 44.26 663.202 42.54 662.362 41.1C661.562 39.62 660.482 38.5 659.122 37.74C657.802 36.98 656.362 36.6 654.802 36.6C653.282 36.6 651.842 37 650.482 37.8C649.162 38.56 648.082 39.68 647.242 41.16C646.442 42.64 646.042 44.38 646.042 46.38C646.042 48.38 646.442 50.12 647.242 51.6C648.082 53.08 649.162 54.22 650.482 55.02C651.842 55.78 653.282 56.16 654.802 56.16C656.362 56.16 657.802 55.76 659.122 54.96C660.482 54.16 661.562 53.02 662.362 51.54C663.202 50.06 663.622 48.3 663.622 46.26ZM696.126 29.28C698.646 29.28 700.886 29.84 702.846 30.96C704.806 32.04 706.326 33.66 707.406 35.82C708.526 37.94 709.086 40.5 709.086 43.5V63H700.686V44.64C700.686 42 700.026 39.98 698.706 38.58C697.386 37.14 695.586 36.42 693.306 36.42C690.986 36.42 689.146 37.14 687.786 38.58C686.466 39.98 685.806 42 685.806 44.64V63H677.406V18.6H685.806V33.9C686.886 32.46 688.326 31.34 690.126 30.54C691.926 29.7 693.926 29.28 696.126 29.28ZM747.974 29.76L727.394 78.72H718.454L725.654 62.16L712.334 29.76H721.754L730.334 52.98L739.034 29.76H747.974Z" fill="white"/>
</svg>
