<svg width="42" height="43" viewBox="0 0 42 43" fill="none" xmlns="http://www.w3.org/2000/svg">
<g clip-path="url(#clip0_144_175)">
<path d="M0.481209 20.4637L0.482689 20.4621L9.05528 11.9309C9.6975 11.2918 10.7363 11.2941 11.3755 11.9364C12.0147 12.5787 12.0123 13.6174 11.37 14.2566L5.6144 19.9844H40.3594C41.2655 19.9844 42 20.7189 42 21.625C42 22.5311 41.2655 23.2656 40.3594 23.2656H5.61448L11.37 28.9934C12.0122 29.6326 12.0146 30.6713 11.3755 31.3135C10.7362 31.9559 9.69734 31.9581 9.0552 31.3191L0.482605 22.7879L0.481129 22.7863C-0.161423 22.145 -0.15937 21.1029 0.481209 20.4637Z" fill="white"/>
</g>
<defs>
<clipPath id="clip0_144_175">
<rect width="42" height="42" fill="white" transform="translate(0 0.625)"/>
</clipPath>
</defs>
</svg>
