<svg width="42" height="21" viewBox="0 0 42 21" fill="none" xmlns="http://www.w3.org/2000/svg">
<path d="M41.5188 9.46368L41.5173 9.46212L32.9447 0.93087C32.3025 0.291764 31.2638 0.294143 30.6245 0.936447C29.9853 1.57867 29.9878 2.61743 30.63 3.25662L36.3856 8.98437H1.64062C0.734508 8.98437 0 9.71888 0 10.625C0 11.5311 0.734508 12.2656 1.64062 12.2656H36.3855L30.6301 17.9934C29.9878 18.6326 29.9854 19.6713 30.6246 20.3135C31.2638 20.9559 32.3027 20.9581 32.9448 20.3191L41.5174 11.7879L41.5189 11.7863C42.1614 11.145 42.1594 10.1029 41.5188 9.46368Z" fill="white"/>
</svg>
