<svg width="341" height="93" viewBox="0 0 341 93" fill="none" xmlns="http://www.w3.org/2000/svg">
<path d="M0 0.375H324.365C327.93 0.375 330.388 3.97615 329.103 7.30165C319.663 31.7297 291.338 111.185 331.854 88.2739C379.546 61.3049 0 88.2739 0 88.2739V0.375Z" fill="#08D565"/>
<path d="M6.98 43.755C6.98 40.315 7.68 37.315 9.08 34.755C10.48 32.155 12.42 30.155 14.9 28.755C17.38 27.315 20.22 26.595 23.42 26.595C27.54 26.595 30.94 27.635 33.62 29.715C36.34 31.755 38.16 34.635 39.08 38.355H30.02C29.54 36.915 28.72 35.795 27.56 34.995C26.44 34.155 25.04 33.735 23.36 33.735C20.96 33.735 19.06 34.615 17.66 36.375C16.26 38.095 15.56 40.555 15.56 43.755C15.56 46.915 16.26 49.375 17.66 51.135C19.06 52.855 20.96 53.715 23.36 53.715C26.76 53.715 28.98 52.195 30.02 49.155H39.08C38.16 52.755 36.34 55.615 33.62 57.735C30.9 59.855 27.5 60.915 23.42 60.915C20.22 60.915 17.38 60.215 14.9 58.815C12.42 57.375 10.48 55.375 9.08 52.815C7.68 50.215 6.98 47.195 6.98 43.755ZM59.0938 60.915C55.8937 60.915 53.0137 60.215 50.4537 58.815C47.8937 57.375 45.8737 55.355 44.3937 52.755C42.9537 50.155 42.2337 47.155 42.2337 43.755C42.2337 40.355 42.9737 37.355 44.4537 34.755C45.9737 32.155 48.0337 30.155 50.6337 28.755C53.2337 27.315 56.1337 26.595 59.3337 26.595C62.5337 26.595 65.4337 27.315 68.0337 28.755C70.6338 30.155 72.6738 32.155 74.1538 34.755C75.6738 37.355 76.4338 40.355 76.4338 43.755C76.4338 47.155 75.6537 50.155 74.0937 52.755C72.5737 55.355 70.4937 57.375 67.8537 58.815C65.2538 60.215 62.3338 60.915 59.0938 60.915ZM59.0938 53.595C60.6137 53.595 62.0337 53.235 63.3537 52.515C64.7137 51.755 65.7937 50.635 66.5938 49.155C67.3937 47.675 67.7937 45.875 67.7937 43.755C67.7937 40.595 66.9537 38.175 65.2737 36.495C63.6337 34.775 61.6137 33.915 59.2137 33.915C56.8137 33.915 54.7937 34.775 53.1537 36.495C51.5537 38.175 50.7537 40.595 50.7537 43.755C50.7537 46.915 51.5337 49.355 53.0937 51.075C54.6937 52.755 56.6938 53.595 59.0938 53.595ZM100.115 26.655C104.075 26.655 107.275 27.915 109.715 30.435C112.155 32.915 113.375 36.395 113.375 40.875V60.375H104.975V42.015C104.975 39.375 104.315 37.355 102.995 35.955C101.675 34.515 99.8755 33.795 97.5955 33.795C95.2755 33.795 93.4355 34.515 92.0755 35.955C90.7555 37.355 90.0955 39.375 90.0955 42.015V60.375H81.6955V27.135H90.0955V31.275C91.2155 29.835 92.6355 28.715 94.3555 27.915C96.1155 27.075 98.0355 26.655 100.115 26.655ZM130.243 34.035V50.115C130.243 51.235 130.503 52.055 131.023 52.575C131.583 53.055 132.503 53.295 133.783 53.295H137.683V60.375H132.403C125.323 60.375 121.783 56.935 121.783 50.055V34.035H117.823V27.135H121.783V18.915H130.243V27.135H137.683V34.035H130.243ZM140.665 43.635C140.665 40.275 141.325 37.295 142.645 34.695C144.005 32.095 145.825 30.095 148.105 28.695C150.425 27.295 153.005 26.595 155.845 26.595C158.325 26.595 160.485 27.095 162.325 28.095C164.205 29.095 165.705 30.355 166.825 31.875V27.135H175.285V60.375H166.825V55.515C165.745 57.075 164.245 58.375 162.325 59.415C160.445 60.415 158.265 60.915 155.785 60.915C152.985 60.915 150.425 60.195 148.105 58.755C145.825 57.315 144.005 55.295 142.645 52.695C141.325 50.055 140.665 47.035 140.665 43.635ZM166.825 43.755C166.825 41.715 166.425 39.975 165.625 38.535C164.825 37.055 163.745 35.935 162.385 35.175C161.025 34.375 159.565 33.975 158.005 33.975C156.445 33.975 155.005 34.355 153.685 35.115C152.365 35.875 151.285 36.995 150.445 38.475C149.645 39.915 149.245 41.635 149.245 43.635C149.245 45.635 149.645 47.395 150.445 48.915C151.285 50.395 152.365 51.535 153.685 52.335C155.045 53.135 156.485 53.535 158.005 53.535C159.565 53.535 161.025 53.155 162.385 52.395C163.745 51.595 164.825 50.475 165.625 49.035C166.425 47.555 166.825 45.795 166.825 43.755ZM180.429 43.755C180.429 40.315 181.129 37.315 182.529 34.755C183.929 32.155 185.869 30.155 188.349 28.755C190.829 27.315 193.669 26.595 196.869 26.595C200.989 26.595 204.389 27.635 207.069 29.715C209.789 31.755 211.609 34.635 212.529 38.355H203.469C202.989 36.915 202.169 35.795 201.009 34.995C199.889 34.155 198.489 33.735 196.809 33.735C194.409 33.735 192.509 34.615 191.109 36.375C189.709 38.095 189.009 40.555 189.009 43.755C189.009 46.915 189.709 49.375 191.109 51.135C192.509 52.855 194.409 53.715 196.809 53.715C200.209 53.715 202.429 52.195 203.469 49.155H212.529C211.609 52.755 209.789 55.615 207.069 57.735C204.349 59.855 200.949 60.915 196.869 60.915C193.669 60.915 190.829 60.215 188.349 58.815C185.869 57.375 183.929 55.375 182.529 52.815C181.129 50.215 180.429 47.195 180.429 43.755ZM227.563 34.035V50.115C227.563 51.235 227.823 52.055 228.343 52.575C228.903 53.055 229.823 53.295 231.103 53.295H235.003V60.375H229.723C222.643 60.375 219.103 56.935 219.103 50.055V34.035H215.143V27.135H219.103V18.915H227.563V27.135H235.003V34.035H227.563ZM252.865 60.915C250.145 60.915 247.705 60.435 245.545 59.475C243.385 58.475 241.665 57.135 240.385 55.455C239.145 53.775 238.465 51.915 238.345 49.875H246.805C246.965 51.155 247.585 52.215 248.665 53.055C249.785 53.895 251.165 54.315 252.805 54.315C254.405 54.315 255.645 53.995 256.525 53.355C257.445 52.715 257.905 51.895 257.905 50.895C257.905 49.815 257.345 49.015 256.225 48.495C255.145 47.935 253.405 47.335 251.005 46.695C248.525 46.095 246.485 45.475 244.885 44.835C243.325 44.195 241.965 43.215 240.805 41.895C239.685 40.575 239.125 38.795 239.125 36.555C239.125 34.715 239.645 33.035 240.685 31.515C241.765 29.995 243.285 28.795 245.245 27.915C247.245 27.035 249.585 26.595 252.265 26.595C256.225 26.595 259.385 27.595 261.745 29.595C264.105 31.555 265.405 34.215 265.645 37.575H257.605C257.485 36.255 256.925 35.215 255.925 34.455C254.965 33.655 253.665 33.255 252.025 33.255C250.505 33.255 249.325 33.535 248.485 34.095C247.685 34.655 247.285 35.435 247.285 36.435C247.285 37.555 247.845 38.415 248.965 39.015C250.085 39.575 251.825 40.155 254.185 40.755C256.585 41.355 258.565 41.975 260.125 42.615C261.685 43.255 263.025 44.255 264.145 45.615C265.305 46.935 265.905 48.695 265.945 50.895C265.945 52.815 265.405 54.535 264.325 56.055C263.285 57.575 261.765 58.775 259.765 59.655C257.805 60.495 255.505 60.915 252.865 60.915Z" fill="white"/>
</svg>
