<svg width="98" height="89" viewBox="0 0 98 89" fill="none" xmlns="http://www.w3.org/2000/svg">
<path d="M60.574 4.47218e-10H37.4296C36.0153 1.88345e-05 34.6259 0.372338 33.4011 1.07953C32.1763 1.78672 31.1593 2.80387 30.4523 4.02873L1.65546 54.9112C0.981575 56.0785 0.611346 57.3962 0.57868 58.7437C0.546014 60.0912 0.851955 61.4253 1.46848 62.6239L12.4937 84.0596C13.8744 86.744 16.0632 87.6625 19.0817 87.6625H78.9221C81.9406 87.6625 84.3215 86.7438 85.7022 84.0596L96.7275 62.6239C97.9802 60.1884 98.294 57.2831 96.9248 54.9112L67.5515 4.02873C66.8444 2.80384 65.8274 1.78668 64.6026 1.07948C63.3777 0.372288 61.9883 -1.48995e-05 60.574 4.47218e-10ZM31.323 58.7164L49.0019 28.0985L66.6806 58.7164H31.323Z" fill="url(#paint0_linear_8_55)"/>
<path d="M66.6806 58.7163L51.9501 87.8545H78.9219C81.9404 87.8545 84.1291 86.7436 85.5098 84.0595L96.5351 62.6237C97.7878 60.188 98.2938 57.2829 96.9246 54.911L86.7793 37.3364H54.3358L66.6806 58.7163Z" fill="url(#paint1_linear_8_55)"/>
<path d="M98 58.7163C98 56.4505 96.9247 54.9109 96.9247 54.9109C97.4643 56.8202 96.0296 58.7163 94.0455 58.7163H31.2298L14.8545 87.2316C16.1251 88.0157 17.5887 88.4309 19.0817 88.4309H78.9219C80.4025 88.4309 81.8544 88.023 83.1183 87.2518C84.3821 86.4807 85.409 85.3761 86.0862 84.0595L97.1116 62.6236C97.7423 61.3976 98 60.1714 98 58.7163Z" fill="url(#paint2_linear_8_55)"/>
<path d="M31.323 58.7163L31.0824 58.9732L14.8545 87.2318C16.1251 88.0159 17.5887 88.4311 19.0817 88.4311H61.0378L31.323 58.7163Z" fill="url(#paint3_linear_8_55)"/>
<path d="M23.7905 71.6711L14.8545 87.2319C16.1251 88.0159 17.5887 88.4312 19.0817 88.4311H78.9219C80.4025 88.4312 81.8544 88.0232 83.1182 87.2521C84.3821 86.4809 85.409 85.3764 86.0862 84.0598L92.4582 71.6711H23.7905Z" fill="url(#paint4_linear_8_55)"/>
<path d="M31.3236 58.7164H31.323L49.0011 28.0994L35.1069 4.03561C34.083 2.26232 31.5073 2.22331 30.474 3.99141L30.4523 4.02869L1.07688 54.915C0.404062 56.082 0.0346108 57.3991 0.00231602 58.7459C-0.0299788 60.0926 0.275914 61.4259 0.892014 62.6238L6.29683 73.1322L11.9192 84.0631C12.5911 85.368 13.6071 86.4643 14.8572 87.2334C14.8572 87.2334 16.3342 88.431 19.0817 88.431C16.9145 88.0355 15.7932 85.6121 16.8949 83.7043L31.3236 58.7164Z" fill="url(#paint5_linear_8_55)"/>
<path d="M35.1067 4.03561C34.0829 2.26232 31.5071 2.22331 30.4738 3.99141L30.4521 4.02869L17.1749 27.029L37.7432 47.5974L49.0012 28.0996L35.1067 4.03561Z" fill="url(#paint6_linear_8_55)"/>
<defs>
<linearGradient id="paint0_linear_8_55" x1="75.0682" y1="35.7912" x2="57.4829" y2="44.2908" gradientUnits="userSpaceOnUse">
<stop stop-color="#FFD833"/>
<stop offset="1" stop-color="#F2B631"/>
</linearGradient>
<linearGradient id="paint1_linear_8_55" x1="74.8457" y1="42.1945" x2="74.8457" y2="54.6952" gradientUnits="userSpaceOnUse">
<stop stop-color="#F9A126" stop-opacity="0"/>
<stop offset="1" stop-color="#F9A126"/>
</linearGradient>
<linearGradient id="paint2_linear_8_55" x1="54.199" y1="58.3366" x2="59.5058" y2="92.5357" gradientUnits="userSpaceOnUse">
<stop stop-color="#7FAEF4"/>
<stop offset="1" stop-color="#4C8DF1"/>
</linearGradient>
<linearGradient id="paint3_linear_8_55" x1="36.7782" y1="86.647" x2="8.86839" y2="58.3441" gradientUnits="userSpaceOnUse">
<stop stop-color="#4256AC" stop-opacity="0"/>
<stop offset="1" stop-color="#1B1464"/>
</linearGradient>
<linearGradient id="paint4_linear_8_55" x1="53.6565" y1="80.3802" x2="53.6565" y2="94.5441" gradientUnits="userSpaceOnUse">
<stop stop-color="#4256AC" stop-opacity="0"/>
<stop offset="1" stop-color="#1B1464"/>
</linearGradient>
<linearGradient id="paint5_linear_8_55" x1="15.6518" y1="38.0891" x2="36.7311" y2="54.9525" gradientUnits="userSpaceOnUse">
<stop stop-color="#28A265"/>
<stop offset="1" stop-color="#28895E"/>
</linearGradient>
<linearGradient id="paint6_linear_8_55" x1="33.0119" y1="26.276" x2="45.5908" y2="18.6105" gradientUnits="userSpaceOnUse">
<stop stop-color="#108372" stop-opacity="0"/>
<stop offset="1" stop-color="#006837"/>
</linearGradient>
</defs>
</svg>
