<svg width="507" height="92" viewBox="0 0 507 92" fill="none" xmlns="http://www.w3.org/2000/svg">
<path d="M0 0H491.712C495.642 0 498.095 4.33496 496.123 7.73427C481.44 33.0531 440.267 110.564 500.745 87.8989C572.708 60.9299 0 87.8989 0 87.8989V0Z" fill="#08D565"/>
<path d="M49.8 21.12V63H41.4V35.76L30.18 63H23.82L12.54 35.76V63H4.14V21.12H13.68L27 52.26L40.32 21.12H49.8ZM89.0048 29.76L68.4248 78.72H59.4848L66.6848 62.16L53.3648 29.76H62.7848L71.3648 52.98L80.0648 29.76H89.0048ZM136.93 45.66C136.93 46.86 136.85 47.94 136.69 48.9H112.39C112.59 51.3 113.43 53.18 114.91 54.54C116.39 55.9 118.21 56.58 120.37 56.58C123.49 56.58 125.71 55.24 127.03 52.56H136.09C135.13 55.76 133.29 58.4 130.57 60.48C127.85 62.52 124.51 63.54 120.55 63.54C117.35 63.54 114.47 62.84 111.91 61.44C109.39 60 107.41 57.98 105.97 55.38C104.57 52.78 103.87 49.78 103.87 46.38C103.87 42.94 104.57 39.92 105.97 37.32C107.37 34.72 109.33 32.72 111.85 31.32C114.37 29.92 117.27 29.22 120.55 29.22C123.71 29.22 126.53 29.9 129.01 31.26C131.53 32.62 133.47 34.56 134.83 37.08C136.23 39.56 136.93 42.42 136.93 45.66ZM128.23 43.26C128.19 41.1 127.41 39.38 125.89 38.1C124.37 36.78 122.51 36.12 120.31 36.12C118.23 36.12 116.47 36.76 115.03 38.04C113.63 39.28 112.77 41.02 112.45 43.26H128.23ZM160.521 63L153.681 52.68L147.621 63H138.621L149.481 46.32L138.501 29.76H147.981L154.761 40.02L160.881 29.76H169.881L158.961 46.32L170.001 63H160.521ZM182.063 34.56C183.143 33.04 184.623 31.78 186.503 30.78C188.423 29.74 190.603 29.22 193.043 29.22C195.883 29.22 198.443 29.92 200.723 31.32C203.043 32.72 204.863 34.72 206.183 37.32C207.543 39.88 208.223 42.86 208.223 46.26C208.223 49.66 207.543 52.68 206.183 55.32C204.863 57.92 203.043 59.94 200.723 61.38C198.443 62.82 195.883 63.54 193.043 63.54C190.603 63.54 188.443 63.04 186.563 62.04C184.723 61.04 183.223 59.78 182.063 58.26V78.84H173.663V29.76H182.063V34.56ZM199.643 46.26C199.643 44.26 199.223 42.54 198.383 41.1C197.583 39.62 196.503 38.5 195.143 37.74C193.823 36.98 192.383 36.6 190.823 36.6C189.303 36.6 187.863 37 186.503 37.8C185.183 38.56 184.103 39.68 183.263 41.16C182.463 42.64 182.063 44.38 182.063 46.38C182.063 48.38 182.463 50.12 183.263 51.6C184.103 53.08 185.183 54.22 186.503 55.02C187.863 55.78 189.303 56.16 190.823 56.16C192.383 56.16 193.823 55.76 195.143 54.96C196.503 54.16 197.583 53.02 198.383 51.54C199.223 50.06 199.643 48.3 199.643 46.26ZM244.328 45.66C244.328 46.86 244.248 47.94 244.088 48.9H219.788C219.988 51.3 220.828 53.18 222.308 54.54C223.788 55.9 225.608 56.58 227.768 56.58C230.888 56.58 233.108 55.24 234.428 52.56H243.488C242.528 55.76 240.688 58.4 237.968 60.48C235.248 62.52 231.908 63.54 227.948 63.54C224.748 63.54 221.868 62.84 219.308 61.44C216.788 60 214.808 57.98 213.368 55.38C211.968 52.78 211.268 49.78 211.268 46.38C211.268 42.94 211.968 39.92 213.368 37.32C214.768 34.72 216.728 32.72 219.248 31.32C221.768 29.92 224.668 29.22 227.948 29.22C231.108 29.22 233.928 29.9 236.408 31.26C238.928 32.62 240.868 34.56 242.228 37.08C243.628 39.56 244.328 42.42 244.328 45.66ZM235.628 43.26C235.588 41.1 234.808 39.38 233.288 38.1C231.768 36.78 229.908 36.12 227.708 36.12C225.628 36.12 223.868 36.76 222.428 38.04C221.028 39.28 220.168 41.02 219.848 43.26H235.628ZM257.959 34.92C259.039 33.16 260.439 31.78 262.159 30.78C263.919 29.78 265.919 29.28 268.159 29.28V38.1H265.939C263.299 38.1 261.299 38.72 259.939 39.96C258.619 41.2 257.959 43.36 257.959 46.44V63H249.559V29.76H257.959V34.92ZM277.177 25.8C275.697 25.8 274.457 25.34 273.457 24.42C272.497 23.46 272.017 22.28 272.017 20.88C272.017 19.48 272.497 18.32 273.457 17.4C274.457 16.44 275.697 15.96 277.177 15.96C278.657 15.96 279.877 16.44 280.837 17.4C281.837 18.32 282.337 19.48 282.337 20.88C282.337 22.28 281.837 23.46 280.837 24.42C279.877 25.34 278.657 25.8 277.177 25.8ZM281.317 29.76V63H272.917V29.76H281.317ZM319.616 45.66C319.616 46.86 319.536 47.94 319.376 48.9H295.076C295.276 51.3 296.116 53.18 297.596 54.54C299.076 55.9 300.896 56.58 303.056 56.58C306.176 56.58 308.396 55.24 309.716 52.56H318.776C317.816 55.76 315.976 58.4 313.256 60.48C310.536 62.52 307.196 63.54 303.236 63.54C300.036 63.54 297.156 62.84 294.596 61.44C292.076 60 290.096 57.98 288.656 55.38C287.256 52.78 286.556 49.78 286.556 46.38C286.556 42.94 287.256 39.92 288.656 37.32C290.056 34.72 292.016 32.72 294.536 31.32C297.056 29.92 299.956 29.22 303.236 29.22C306.396 29.22 309.216 29.9 311.696 31.26C314.216 32.62 316.156 34.56 317.516 37.08C318.916 39.56 319.616 42.42 319.616 45.66ZM310.916 43.26C310.876 41.1 310.096 39.38 308.576 38.1C307.056 36.78 305.196 36.12 302.996 36.12C300.916 36.12 299.156 36.76 297.716 38.04C296.316 39.28 295.456 41.02 295.136 43.26H310.916ZM343.267 29.28C347.227 29.28 350.427 30.54 352.867 33.06C355.307 35.54 356.527 39.02 356.527 43.5V63H348.127V44.64C348.127 42 347.467 39.98 346.147 38.58C344.827 37.14 343.027 36.42 340.747 36.42C338.427 36.42 336.587 37.14 335.227 38.58C333.907 39.98 333.247 42 333.247 44.64V63H324.847V29.76H333.247V33.9C334.367 32.46 335.787 31.34 337.507 30.54C339.267 29.7 341.187 29.28 343.267 29.28ZM361.455 46.38C361.455 42.94 362.155 39.94 363.555 37.38C364.955 34.78 366.895 32.78 369.375 31.38C371.855 29.94 374.695 29.22 377.895 29.22C382.015 29.22 385.415 30.26 388.095 32.34C390.815 34.38 392.635 37.26 393.555 40.98H384.495C384.015 39.54 383.195 38.42 382.035 37.62C380.915 36.78 379.515 36.36 377.835 36.36C375.435 36.36 373.535 37.24 372.135 39C370.735 40.72 370.035 43.18 370.035 46.38C370.035 49.54 370.735 52 372.135 53.76C373.535 55.48 375.435 56.34 377.835 56.34C381.235 56.34 383.455 54.82 384.495 51.78H393.555C392.635 55.38 390.815 58.24 388.095 60.36C385.375 62.48 381.975 63.54 377.895 63.54C374.695 63.54 371.855 62.84 369.375 61.44C366.895 60 364.955 58 363.555 55.44C362.155 52.84 361.455 49.82 361.455 46.38ZM429.709 45.66C429.709 46.86 429.629 47.94 429.469 48.9H405.169C405.369 51.3 406.209 53.18 407.689 54.54C409.169 55.9 410.989 56.58 413.149 56.58C416.269 56.58 418.489 55.24 419.809 52.56H428.869C427.909 55.76 426.069 58.4 423.349 60.48C420.629 62.52 417.289 63.54 413.329 63.54C410.129 63.54 407.249 62.84 404.689 61.44C402.169 60 400.189 57.98 398.749 55.38C397.349 52.78 396.649 49.78 396.649 46.38C396.649 42.94 397.349 39.92 398.749 37.32C400.149 34.72 402.109 32.72 404.629 31.32C407.149 29.92 410.049 29.22 413.329 29.22C416.489 29.22 419.309 29.9 421.789 31.26C424.309 32.62 426.249 34.56 427.609 37.08C429.009 39.56 429.709 42.42 429.709 45.66ZM421.009 43.26C420.969 41.1 420.189 39.38 418.669 38.1C417.149 36.78 415.289 36.12 413.089 36.12C411.009 36.12 409.249 36.76 407.809 38.04C406.409 39.28 405.549 41.02 405.229 43.26H421.009ZM447.66 63.54C444.94 63.54 442.5 63.06 440.34 62.1C438.18 61.1 436.46 59.76 435.18 58.08C433.94 56.4 433.26 54.54 433.14 52.5H441.6C441.76 53.78 442.38 54.84 443.46 55.68C444.58 56.52 445.96 56.94 447.6 56.94C449.2 56.94 450.44 56.62 451.32 55.98C452.24 55.34 452.7 54.52 452.7 53.52C452.7 52.44 452.14 51.64 451.02 51.12C449.94 50.56 448.2 49.96 445.8 49.32C443.32 48.72 441.28 48.1 439.68 47.46C438.12 46.82 436.76 45.84 435.6 44.52C434.48 43.2 433.92 41.42 433.92 39.18C433.92 37.34 434.44 35.66 435.48 34.14C436.56 32.62 438.08 31.42 440.04 30.54C442.04 29.66 444.38 29.22 447.06 29.22C451.02 29.22 454.18 30.22 456.54 32.22C458.9 34.18 460.2 36.84 460.44 40.2H452.4C452.28 38.88 451.72 37.84 450.72 37.08C449.76 36.28 448.46 35.88 446.82 35.88C445.3 35.88 444.12 36.16 443.28 36.72C442.48 37.28 442.08 38.06 442.08 39.06C442.08 40.18 442.64 41.04 443.76 41.64C444.88 42.2 446.62 42.78 448.98 43.38C451.38 43.98 453.36 44.6 454.92 45.24C456.48 45.88 457.82 46.88 458.94 48.24C460.1 49.56 460.7 51.32 460.74 53.52C460.74 55.44 460.2 57.16 459.12 58.68C458.08 60.2 456.56 61.4 454.56 62.28C452.6 63.12 450.3 63.54 447.66 63.54Z" fill="white"/>
</svg>
