<svg width="24" height="24" viewBox="0 0 24 24" fill="none" xmlns="http://www.w3.org/2000/svg">
<path d="M1.63636 21.0022H5.45456V11.7295L2.95434 7.36364L0 7.63856V19.3658C0 20.2699 0.732281 21.0022 1.63636 21.0022Z" fill="#0085F7"/>
<path d="M18.5454 21.0022H22.3636C23.2677 21.0022 24 20.2699 24 19.3658V7.63856L21.0499 7.36364L18.5455 11.7295V21.0022H18.5454Z" fill="#00A94B"/>
<path d="M18.5454 4.63856L16.3026 8.91839L18.5454 11.7295L24 7.63856V5.45676C24 3.43448 21.6914 2.27948 20.0727 3.49312L18.5454 4.63856Z" fill="#FFBC00"/>
<path fill-rule="evenodd" clip-rule="evenodd" d="M5.45455 11.7295L3.31738 7.21495L5.45455 4.63856L12 9.54764L18.5454 4.63856V11.7295L12 16.6386L5.45455 11.7295Z" fill="#FF4131"/>
<path d="M0 5.45676V7.63856L5.45456 11.7295V4.63856L3.92728 3.49312C2.30864 2.27948 0 3.43448 0 5.45676Z" fill="#E51C19"/>
</svg>
