<svg width="24" height="24" viewBox="0 0 24 24" fill="none" xmlns="http://www.w3.org/2000/svg">
<g clip-path="url(#clip0_144_152)">
<path d="M20.7273 0H3.27273C1.46525 0 0 1.46525 0 3.27273V20.7273C0 22.5347 1.46525 24 3.27273 24H20.7273C22.5347 24 24 22.5347 24 20.7273V3.27273C24 1.46525 22.5347 0 20.7273 0Z" fill="#0077B5"/>
<path d="M8.64548 6.54545C8.64548 6.95001 8.52551 7.34547 8.30075 7.68185C8.076 8.01822 7.75654 8.28039 7.38278 8.43521C7.00902 8.59002 6.59775 8.63053 6.20097 8.55161C5.80419 8.47268 5.43973 8.27787 5.15367 7.99181C4.8676 7.70575 4.67279 7.34128 4.59387 6.9445C4.51494 6.54772 4.55545 6.13645 4.71027 5.76269C4.86508 5.38894 5.12725 5.06948 5.46363 4.84472C5.8 4.61996 6.19547 4.5 6.60002 4.5C7.14251 4.5 7.66278 4.7155 8.04638 5.0991C8.42997 5.4827 8.64548 6.00297 8.64548 6.54545ZM8.18184 9.95455V18.9914C8.1822 19.058 8.16938 19.1241 8.14411 19.1858C8.11885 19.2475 8.08164 19.3036 8.03463 19.3509C7.98762 19.3981 7.93172 19.4356 7.87017 19.4612C7.80861 19.4868 7.7426 19.5 7.67593 19.5H5.52002C5.45335 19.5002 5.38731 19.4872 5.32568 19.4618C5.26406 19.4363 5.20806 19.399 5.16092 19.3518C5.11378 19.3047 5.07642 19.2487 5.051 19.1871C5.02557 19.1254 5.01257 19.0594 5.01275 18.9927V9.95455C5.01275 9.82001 5.06619 9.69098 5.16133 9.59585C5.25646 9.50072 5.38548 9.44727 5.52002 9.44727H7.67593C7.81023 9.44763 7.93891 9.50124 8.03375 9.59633C8.12858 9.69142 8.18184 9.82024 8.18184 9.95455ZM19.4509 14.6591V19.0336C19.4511 19.0949 19.4392 19.1557 19.4158 19.2123C19.3924 19.269 19.3581 19.3205 19.3147 19.3638C19.2714 19.4071 19.2199 19.4415 19.1632 19.4649C19.1066 19.4882 19.0459 19.5002 18.9846 19.5H16.6664C16.6051 19.5002 16.5444 19.4882 16.4877 19.4649C16.431 19.4415 16.3796 19.4071 16.3362 19.3638C16.2929 19.3205 16.2585 19.269 16.2352 19.2123C16.2118 19.1557 16.1998 19.0949 16.2 19.0336V14.7941C16.2 14.1614 16.3855 12.0232 14.5459 12.0232C13.1209 12.0232 12.8305 13.4864 12.7732 14.1436V19.0336C12.7732 19.1562 12.725 19.2738 12.639 19.361C12.553 19.4483 12.4362 19.4982 12.3137 19.5H10.0746C10.0134 19.5 9.95281 19.4879 9.8963 19.4645C9.8398 19.441 9.78848 19.4066 9.74528 19.3633C9.70208 19.32 9.66786 19.2686 9.64457 19.212C9.62128 19.1554 9.60939 19.0948 9.60957 19.0336V9.915C9.60939 9.85382 9.62128 9.79321 9.64457 9.73663C9.66786 9.68006 9.70208 9.62864 9.74528 9.58531C9.78848 9.54199 9.8398 9.50762 9.8963 9.48416C9.95281 9.46071 10.0134 9.44864 10.0746 9.44864H12.3137C12.4373 9.44864 12.556 9.49777 12.6434 9.58523C12.7309 9.67269 12.78 9.79131 12.78 9.915V10.7032C13.3091 9.90955 14.0932 9.29727 15.7664 9.29727C19.4727 9.29727 19.4509 12.7582 19.4509 14.6591Z" fill="white"/>
</g>
<defs>
<clipPath id="clip0_144_152">
<rect width="24" height="24" fill="white"/>
</clipPath>
</defs>
</svg>
