<svg width="126" height="60" viewBox="0 0 126 60" fill="none" xmlns="http://www.w3.org/2000/svg">
<path d="M17.44 0.56V21.5H13.24V12.59H4.27V21.5H0.0700002V0.56H4.27V9.17H13.24V0.56H17.44ZM31.2939 21.71C29.3339 21.71 27.5339 21.25 25.8939 20.33C24.2539 19.41 22.9539 18.14 21.9939 16.52C21.0339 14.88 20.5539 13.03 20.5539 10.97C20.5539 8.93 21.0339 7.1 21.9939 5.48C22.9539 3.84 24.2539 2.56 25.8939 1.64C27.5339 0.719999 29.3339 0.26 31.2939 0.26C33.2739 0.26 35.0739 0.719999 36.6939 1.64C38.3339 2.56 39.6239 3.84 40.5639 5.48C41.5239 7.1 42.0039 8.93 42.0039 10.97C42.0039 13.03 41.5239 14.88 40.5639 16.52C39.6239 18.14 38.3339 19.41 36.6939 20.33C35.0539 21.25 33.2539 21.71 31.2939 21.71ZM31.2939 17.96C32.5539 17.96 33.6639 17.68 34.6239 17.12C35.5839 16.54 36.3339 15.72 36.8739 14.66C37.4139 13.6 37.6839 12.37 37.6839 10.97C37.6839 9.57 37.4139 8.35 36.8739 7.31C36.3339 6.25 35.5839 5.44 34.6239 4.88C33.6639 4.32 32.5539 4.04 31.2939 4.04C30.0339 4.04 28.9139 4.32 27.9339 4.88C26.9739 5.44 26.2239 6.25 25.6839 7.31C25.1439 8.35 24.8739 9.57 24.8739 10.97C24.8739 12.37 25.1439 13.6 25.6839 14.66C26.2239 15.72 26.9739 16.54 27.9339 17.12C28.9139 17.68 30.0339 17.96 31.2939 17.96ZM52.3586 21.71C50.8986 21.71 49.5786 21.46 48.3986 20.96C47.2386 20.46 46.3186 19.74 45.6386 18.8C44.9586 17.86 44.6086 16.75 44.5886 15.47H49.0886C49.1486 16.33 49.4486 17.01 49.9886 17.51C50.5486 18.01 51.3086 18.26 52.2686 18.26C53.2486 18.26 54.0186 18.03 54.5786 17.57C55.1386 17.09 55.4186 16.47 55.4186 15.71C55.4186 15.09 55.2286 14.58 54.8486 14.18C54.4686 13.78 53.9886 13.47 53.4086 13.25C52.8486 13.01 52.0686 12.75 51.0686 12.47C49.7086 12.07 48.5986 11.68 47.7386 11.3C46.8986 10.9 46.1686 10.31 45.5486 9.53C44.9486 8.73 44.6486 7.67 44.6486 6.35C44.6486 5.11 44.9586 4.03 45.5786 3.11C46.1986 2.19 47.0686 1.49 48.1886 1.01C49.3086 0.51 50.5886 0.26 52.0286 0.26C54.1886 0.26 55.9386 0.79 57.2786 1.85C58.6386 2.89 59.3886 4.35 59.5286 6.23H54.9086C54.8686 5.51 54.5586 4.92 53.9786 4.46C53.4186 3.98 52.6686 3.74 51.7286 3.74C50.9086 3.74 50.2486 3.95 49.7486 4.37C49.2686 4.79 49.0286 5.4 49.0286 6.2C49.0286 6.76 49.2086 7.23 49.5686 7.61C49.9486 7.97 50.4086 8.27 50.9486 8.51C51.5086 8.73 52.2886 8.99 53.2886 9.29C54.6486 9.69 55.7586 10.09 56.6186 10.49C57.4786 10.89 58.2186 11.49 58.8386 12.29C59.4586 13.09 59.7686 14.14 59.7686 15.44C59.7686 16.56 59.4786 17.6 58.8986 18.56C58.3186 19.52 57.4686 20.29 56.3486 20.87C55.2286 21.43 53.8986 21.71 52.3586 21.71ZM70.6398 21.71C69.1798 21.71 67.8598 21.46 66.6798 20.96C65.5198 20.46 64.5998 19.74 63.9198 18.8C63.2398 17.86 62.8898 16.75 62.8698 15.47H67.3698C67.4298 16.33 67.7298 17.01 68.2698 17.51C68.8298 18.01 69.5898 18.26 70.5498 18.26C71.5298 18.26 72.2998 18.03 72.8598 17.57C73.4198 17.09 73.6998 16.47 73.6998 15.71C73.6998 15.09 73.5098 14.58 73.1298 14.18C72.7498 13.78 72.2698 13.47 71.6898 13.25C71.1298 13.01 70.3498 12.75 69.3498 12.47C67.9898 12.07 66.8798 11.68 66.0198 11.3C65.1798 10.9 64.4498 10.31 63.8298 9.53C63.2298 8.73 62.9298 7.67 62.9298 6.35C62.9298 5.11 63.2398 4.03 63.8598 3.11C64.4798 2.19 65.3498 1.49 66.4698 1.01C67.5898 0.51 68.8698 0.26 70.3098 0.26C72.4698 0.26 74.2198 0.79 75.5598 1.85C76.9198 2.89 77.6698 4.35 77.8098 6.23H73.1898C73.1498 5.51 72.8398 4.92 72.2598 4.46C71.6998 3.98 70.9498 3.74 70.0098 3.74C69.1898 3.74 68.5298 3.95 68.0298 4.37C67.5498 4.79 67.3098 5.4 67.3098 6.2C67.3098 6.76 67.4898 7.23 67.8498 7.61C68.2298 7.97 68.6898 8.27 69.2298 8.51C69.7898 8.73 70.5698 8.99 71.5698 9.29C72.9298 9.69 74.0398 10.09 74.8998 10.49C75.7598 10.89 76.4998 11.49 77.1198 12.29C77.7398 13.09 78.0498 14.14 78.0498 15.44C78.0498 16.56 77.7598 17.6 77.1798 18.56C76.5998 19.52 75.7498 20.29 74.6298 20.87C73.5098 21.43 72.1798 21.71 70.6398 21.71ZM94.5311 17.51H86.1911L84.8111 21.5H80.4011L87.9311 0.529998H92.8211L100.351 21.5H95.9111L94.5311 17.51ZM93.3911 14.15L90.3611 5.39L87.3311 14.15H93.3911ZM125.996 0.56V21.5H121.796V7.88L116.186 21.5H113.006L107.366 7.88V21.5H103.166V0.56H107.936L114.596 16.13L121.256 0.56H125.996Z" fill="#119D36"/>
<path d="M17.44 38.56V59.5H13.24V50.59H4.27V59.5H0.0700002V38.56H4.27V47.17H13.24V38.56H17.44ZM34.4139 55.51H26.0739L24.6939 59.5H20.2839L27.8139 38.53H32.7039L40.2339 59.5H35.7939L34.4139 55.51ZM33.2739 52.15L30.2439 43.39L27.2139 52.15H33.2739ZM50.2785 59.71C48.8185 59.71 47.4985 59.46 46.3185 58.96C45.1585 58.46 44.2385 57.74 43.5585 56.8C42.8785 55.86 42.5285 54.75 42.5085 53.47H47.0085C47.0685 54.33 47.3685 55.01 47.9085 55.51C48.4685 56.01 49.2285 56.26 50.1885 56.26C51.1685 56.26 51.9385 56.03 52.4985 55.57C53.0585 55.09 53.3385 54.47 53.3385 53.71C53.3385 53.09 53.1485 52.58 52.7685 52.18C52.3885 51.78 51.9085 51.47 51.3285 51.25C50.7685 51.01 49.9885 50.75 48.9885 50.47C47.6285 50.07 46.5185 49.68 45.6585 49.3C44.8185 48.9 44.0885 48.31 43.4685 47.53C42.8685 46.73 42.5685 45.67 42.5685 44.35C42.5685 43.11 42.8785 42.03 43.4985 41.11C44.1185 40.19 44.9885 39.49 46.1085 39.01C47.2285 38.51 48.5085 38.26 49.9485 38.26C52.1085 38.26 53.8585 38.79 55.1985 39.85C56.5585 40.89 57.3085 42.35 57.4485 44.23H52.8285C52.7885 43.51 52.4785 42.92 51.8985 42.46C51.3385 41.98 50.5885 41.74 49.6485 41.74C48.8285 41.74 48.1685 41.95 47.6685 42.37C47.1885 42.79 46.9485 43.4 46.9485 44.2C46.9485 44.76 47.1285 45.23 47.4885 45.61C47.8685 45.97 48.3285 46.27 48.8685 46.51C49.4285 46.73 50.2085 46.99 51.2085 47.29C52.5685 47.69 53.6785 48.09 54.5385 48.49C55.3985 48.89 56.1385 49.49 56.7585 50.29C57.3785 51.09 57.6885 52.14 57.6885 53.44C57.6885 54.56 57.3985 55.6 56.8185 56.56C56.2385 57.52 55.3885 58.29 54.2685 58.87C53.1485 59.43 51.8185 59.71 50.2785 59.71ZM68.5598 59.71C67.0998 59.71 65.7798 59.46 64.5998 58.96C63.4398 58.46 62.5198 57.74 61.8398 56.8C61.1598 55.86 60.8098 54.75 60.7898 53.47H65.2898C65.3498 54.33 65.6498 55.01 66.1898 55.51C66.7498 56.01 67.5098 56.26 68.4698 56.26C69.4498 56.26 70.2198 56.03 70.7798 55.57C71.3398 55.09 71.6198 54.47 71.6198 53.71C71.6198 53.09 71.4298 52.58 71.0498 52.18C70.6698 51.78 70.1898 51.47 69.6098 51.25C69.0498 51.01 68.2698 50.75 67.2698 50.47C65.9098 50.07 64.7998 49.68 63.9398 49.3C63.0998 48.9 62.3698 48.31 61.7498 47.53C61.1498 46.73 60.8498 45.67 60.8498 44.35C60.8498 43.11 61.1598 42.03 61.7798 41.11C62.3998 40.19 63.2698 39.49 64.3898 39.01C65.5098 38.51 66.7898 38.26 68.2298 38.26C70.3898 38.26 72.1398 38.79 73.4798 39.85C74.8398 40.89 75.5898 42.35 75.7298 44.23H71.1098C71.0698 43.51 70.7598 42.92 70.1798 42.46C69.6198 41.98 68.8698 41.74 67.9298 41.74C67.1098 41.74 66.4498 41.95 65.9498 42.37C65.4698 42.79 65.2298 43.4 65.2298 44.2C65.2298 44.76 65.4098 45.23 65.7698 45.61C66.1498 45.97 66.6098 46.27 67.1498 46.51C67.7098 46.73 68.4898 46.99 69.4898 47.29C70.8498 47.69 71.9598 48.09 72.8198 48.49C73.6798 48.89 74.4198 49.49 75.0398 50.29C75.6598 51.09 75.9698 52.14 75.9698 53.44C75.9698 54.56 75.6798 55.6 75.0998 56.56C74.5198 57.52 73.6698 58.29 72.5498 58.87C71.4298 59.43 70.0998 59.71 68.5598 59.71ZM92.451 55.51H84.111L82.731 59.5H78.321L85.851 38.53H90.741L98.271 59.5H93.831L92.451 55.51ZM91.311 52.15L88.281 43.39L85.251 52.15H91.311ZM118.996 59.5H114.796L105.286 45.13V59.5H101.086V38.53H105.286L114.796 52.93V38.53H118.996V59.5Z" fill="white"/>
</svg>
