<svg width="507" height="92" viewBox="0 0 507 92" fill="none" xmlns="http://www.w3.org/2000/svg">
<path d="M0 0H491.712C495.642 0 498.095 4.33496 496.123 7.73427C481.44 33.0531 440.267 110.564 500.745 87.8989C572.708 60.9299 0 87.8989 0 87.8989V0Z" fill="#08D565"/>
<path d="M23.6 60.42C20.68 60.42 18.04 59.92 15.68 58.92C13.36 57.92 11.52 56.48 10.16 54.6C8.8 52.72 8.1 50.5 8.06 47.94H17.06C17.18 49.66 17.78 51.02 18.86 52.02C19.98 53.02 21.5 53.52 23.42 53.52C25.38 53.52 26.92 53.06 28.04 52.14C29.16 51.18 29.72 49.94 29.72 48.42C29.72 47.18 29.34 46.16 28.58 45.36C27.82 44.56 26.86 43.94 25.7 43.5C24.58 43.02 23.02 42.5 21.02 41.94C18.3 41.14 16.08 40.36 14.36 39.6C12.68 38.8 11.22 37.62 9.98 36.06C8.78 34.46 8.18 32.34 8.18 29.7C8.18 27.22 8.8 25.06 10.04 23.22C11.28 21.38 13.02 19.98 15.26 19.02C17.5 18.02 20.06 17.52 22.94 17.52C27.26 17.52 30.76 18.58 33.44 20.7C36.16 22.78 37.66 25.7 37.94 29.46H28.7C28.62 28.02 28 26.84 26.84 25.92C25.72 24.96 24.22 24.48 22.34 24.48C20.7 24.48 19.38 24.9 18.38 25.74C17.42 26.58 16.94 27.8 16.94 29.4C16.94 30.52 17.3 31.46 18.02 32.22C18.78 32.94 19.7 33.54 20.78 34.02C21.9 34.46 23.46 34.98 25.46 35.58C28.18 36.38 30.4 37.18 32.12 37.98C33.84 38.78 35.32 39.98 36.56 41.58C37.8 43.18 38.42 45.28 38.42 47.88C38.42 50.12 37.84 52.2 36.68 54.12C35.52 56.04 33.82 57.58 31.58 58.74C29.34 59.86 26.68 60.42 23.6 60.42ZM75.7025 42.66C75.7025 43.86 75.6225 44.94 75.4625 45.9H51.1625C51.3625 48.3 52.2025 50.18 53.6825 51.54C55.1625 52.9 56.9825 53.58 59.1425 53.58C62.2625 53.58 64.4825 52.24 65.8025 49.56H74.8625C73.9025 52.76 72.0625 55.4 69.3425 57.48C66.6225 59.52 63.2825 60.54 59.3225 60.54C56.1225 60.54 53.2425 59.84 50.6825 58.44C48.1625 57 46.1825 54.98 44.7425 52.38C43.3425 49.78 42.6425 46.78 42.6425 43.38C42.6425 39.94 43.3425 36.92 44.7425 34.32C46.1425 31.72 48.1025 29.72 50.6225 28.32C53.1425 26.92 56.0425 26.22 59.3225 26.22C62.4825 26.22 65.3025 26.9 67.7825 28.26C70.3025 29.62 72.2425 31.56 73.6025 34.08C75.0025 36.56 75.7025 39.42 75.7025 42.66ZM67.0025 40.26C66.9625 38.1 66.1825 36.38 64.6625 35.1C63.1425 33.78 61.2825 33.12 59.0825 33.12C57.0025 33.12 55.2425 33.76 53.8025 35.04C52.4025 36.28 51.5425 38.02 51.2225 40.26H67.0025ZM89.3337 15.6V60H80.9337V15.6H89.3337ZM127.633 42.66C127.633 43.86 127.553 44.94 127.393 45.9H103.093C103.293 48.3 104.133 50.18 105.613 51.54C107.093 52.9 108.913 53.58 111.073 53.58C114.193 53.58 116.413 52.24 117.733 49.56H126.793C125.833 52.76 123.993 55.4 121.273 57.48C118.553 59.52 115.213 60.54 111.253 60.54C108.053 60.54 105.173 59.84 102.613 58.44C100.093 57 98.113 54.98 96.673 52.38C95.273 49.78 94.573 46.78 94.573 43.38C94.573 39.94 95.273 36.92 96.673 34.32C98.073 31.72 100.033 29.72 102.553 28.32C105.073 26.92 107.973 26.22 111.253 26.22C114.413 26.22 117.233 26.9 119.713 28.26C122.233 29.62 124.173 31.56 125.533 34.08C126.933 36.56 127.633 39.42 127.633 42.66ZM118.933 40.26C118.893 38.1 118.113 36.38 116.593 35.1C115.073 33.78 113.213 33.12 111.013 33.12C108.933 33.12 107.173 33.76 105.733 35.04C104.333 36.28 103.473 38.02 103.153 40.26H118.933ZM130.704 43.38C130.704 39.94 131.404 36.94 132.804 34.38C134.204 31.78 136.144 29.78 138.624 28.38C141.104 26.94 143.944 26.22 147.144 26.22C151.264 26.22 154.664 27.26 157.344 29.34C160.064 31.38 161.884 34.26 162.804 37.98H153.744C153.264 36.54 152.444 35.42 151.284 34.62C150.164 33.78 148.764 33.36 147.084 33.36C144.684 33.36 142.784 34.24 141.384 36C139.984 37.72 139.284 40.18 139.284 43.38C139.284 46.54 139.984 49 141.384 50.76C142.784 52.48 144.684 53.34 147.084 53.34C150.484 53.34 152.704 51.82 153.744 48.78H162.804C161.884 52.38 160.064 55.24 157.344 57.36C154.624 59.48 151.224 60.54 147.144 60.54C143.944 60.54 141.104 59.84 138.624 58.44C136.144 57 134.204 55 132.804 52.44C131.404 49.84 130.704 46.82 130.704 43.38ZM177.838 33.66V49.74C177.838 50.86 178.098 51.68 178.618 52.2C179.178 52.68 180.098 52.92 181.378 52.92H185.278V60H179.998C172.918 60 169.378 56.56 169.378 49.68V33.66H165.418V26.76H169.378V18.54H177.838V26.76H185.278V33.66H177.838ZM221.32 42.66C221.32 43.86 221.24 44.94 221.08 45.9H196.78C196.98 48.3 197.82 50.18 199.3 51.54C200.78 52.9 202.6 53.58 204.76 53.58C207.88 53.58 210.1 52.24 211.42 49.56H220.48C219.52 52.76 217.68 55.4 214.96 57.48C212.24 59.52 208.9 60.54 204.94 60.54C201.74 60.54 198.86 59.84 196.3 58.44C193.78 57 191.8 54.98 190.36 52.38C188.96 49.78 188.26 46.78 188.26 43.38C188.26 39.94 188.96 36.92 190.36 34.32C191.76 31.72 193.72 29.72 196.24 28.32C198.76 26.92 201.66 26.22 204.94 26.22C208.1 26.22 210.92 26.9 213.4 28.26C215.92 29.62 217.86 31.56 219.22 34.08C220.62 36.56 221.32 39.42 221.32 42.66ZM212.62 40.26C212.58 38.1 211.8 36.38 210.28 35.1C208.76 33.78 206.9 33.12 204.7 33.12C202.62 33.12 200.86 33.76 199.42 35.04C198.02 36.28 197.16 38.02 196.84 40.26H212.62ZM224.391 43.26C224.391 39.9 225.051 36.92 226.371 34.32C227.731 31.72 229.571 29.72 231.891 28.32C234.211 26.92 236.791 26.22 239.631 26.22C241.791 26.22 243.851 26.7 245.811 27.66C247.771 28.58 249.331 29.82 250.491 31.38V15.6H259.011V60H250.491V55.08C249.451 56.72 247.991 58.04 246.111 59.04C244.231 60.04 242.051 60.54 239.571 60.54C236.771 60.54 234.211 59.82 231.891 58.38C229.571 56.94 227.731 54.92 226.371 52.32C225.051 49.68 224.391 46.66 224.391 43.26ZM250.551 43.38C250.551 41.34 250.151 39.6 249.351 38.16C248.551 36.68 247.471 35.56 246.111 34.8C244.751 34 243.291 33.6 241.731 33.6C240.171 33.6 238.731 33.98 237.411 34.74C236.091 35.5 235.011 36.62 234.171 38.1C233.371 39.54 232.971 41.26 232.971 43.26C232.971 45.26 233.371 47.02 234.171 48.54C235.011 50.02 236.091 51.16 237.411 51.96C238.771 52.76 240.211 53.16 241.731 53.16C243.291 53.16 244.751 52.78 246.111 52.02C247.471 51.22 248.551 50.1 249.351 48.66C250.151 47.18 250.551 45.42 250.551 43.38ZM335.692 18.12L323.992 60H314.092L306.232 30.18L298.012 60L288.172 60.06L276.892 18.12H285.892L293.272 50.64L301.792 18.12H311.152L319.192 50.46L326.632 18.12H335.692ZM355.037 60.54C351.837 60.54 348.957 59.84 346.397 58.44C343.837 57 341.817 54.98 340.337 52.38C338.897 49.78 338.177 46.78 338.177 43.38C338.177 39.98 338.917 36.98 340.397 34.38C341.917 31.78 343.977 29.78 346.577 28.38C349.177 26.94 352.077 26.22 355.277 26.22C358.477 26.22 361.377 26.94 363.977 28.38C366.577 29.78 368.617 31.78 370.097 34.38C371.617 36.98 372.377 39.98 372.377 43.38C372.377 46.78 371.597 49.78 370.037 52.38C368.517 54.98 366.437 57 363.797 58.44C361.197 59.84 358.277 60.54 355.037 60.54ZM355.037 53.22C356.557 53.22 357.977 52.86 359.297 52.14C360.657 51.38 361.737 50.26 362.537 48.78C363.337 47.3 363.737 45.5 363.737 43.38C363.737 40.22 362.897 37.8 361.217 36.12C359.577 34.4 357.557 33.54 355.157 33.54C352.757 33.54 350.737 34.4 349.097 36.12C347.497 37.8 346.697 40.22 346.697 43.38C346.697 46.54 347.477 48.98 349.037 50.7C350.637 52.38 352.637 53.22 355.037 53.22ZM386.038 31.92C387.118 30.16 388.518 28.78 390.238 27.78C391.998 26.78 393.998 26.28 396.238 26.28V35.1H394.018C391.378 35.1 389.378 35.72 388.018 36.96C386.698 38.2 386.038 40.36 386.038 43.44V60H377.638V26.76H386.038V31.92ZM420.676 60L409.396 45.84V60H400.996V15.6H409.396V40.86L420.556 26.76H431.476L416.836 43.44L431.596 60H420.676Z" fill="white"/>
</svg>
