<svg width="507" height="92" viewBox="0 0 507 92" fill="none" xmlns="http://www.w3.org/2000/svg">
    <path d="M0 0H491.712C495.642 0 498.095 4.33496 496.123 7.73427C481.44 33.0531 440.267 110.564 500.745 87.8989C572.708 60.9299 0 87.8989 0 87.8989V0Z" fill="#08D565"/>
    <path d="M37.64 18.12V24.9H26.48V60H18.08V24.9H6.92V18.12H37.64ZM57.6289 60.54C54.4289 60.54 51.5489 59.84 48.9889 58.44C46.4289 57 44.4089 54.98 42.9289 52.38C41.4889 49.78 40.7689 46.78 40.7689 43.38C40.7689 39.98 41.5089 36.98 42.9889 34.38C44.5089 31.78 46.5689 29.78 49.1689 28.38C51.7689 26.94 54.6689 26.22 57.8689 26.22C61.0689 26.22 63.9689 26.94 66.5689 28.38C69.1689 29.78 71.2089 31.78 72.6889 34.38C74.2089 36.98 74.9689 39.98 74.9689 43.38C74.9689 46.78 74.1889 49.78 72.6289 52.38C71.1089 54.98 69.0289 57 66.3889 58.44C63.7889 59.84 60.8689 60.54 57.6289 60.54ZM57.6289 53.22C59.1489 53.22 60.5689 52.86 61.8889 52.14C63.2489 51.38 64.3289 50.26 65.1289 48.78C65.9289 47.3 66.3289 45.5 66.3289 43.38C66.3289 40.22 65.4889 37.8 63.8089 36.12C62.1689 34.4 60.1489 33.54 57.7489 33.54C55.3489 33.54 53.3289 34.4 51.6889 36.12C50.0889 37.8 49.2889 40.22 49.2889 43.38C49.2889 46.54 50.0689 48.98 51.6289 50.7C53.2289 52.38 55.2289 53.22 57.6289 53.22ZM94.9906 60.54C91.7906 60.54 88.9106 59.84 86.3506 58.44C83.7906 57 81.7706 54.98 80.2906 52.38C78.8506 49.78 78.1306 46.78 78.1306 43.38C78.1306 39.98 78.8706 36.98 80.3506 34.38C81.8706 31.78 83.9306 29.78 86.5306 28.38C89.1306 26.94 92.0306 26.22 95.2306 26.22C98.4306 26.22 101.331 26.94 103.931 28.38C106.531 29.78 108.571 31.78 110.051 34.38C111.571 36.98 112.331 39.98 112.331 43.38C112.331 46.78 111.551 49.78 109.991 52.38C108.471 54.98 106.391 57 103.751 58.44C101.151 59.84 98.2306 60.54 94.9906 60.54ZM94.9906 53.22C96.5106 53.22 97.9306 52.86 99.2506 52.14C100.611 51.38 101.691 50.26 102.491 48.78C103.291 47.3 103.691 45.5 103.691 43.38C103.691 40.22 102.851 37.8 101.171 36.12C99.5306 34.4 97.5106 33.54 95.1106 33.54C92.7106 33.54 90.6906 34.4 89.0506 36.12C87.4506 37.8 86.6506 40.22 86.6506 43.38C86.6506 46.54 87.4306 48.98 88.9906 50.7C90.5906 52.38 92.5906 53.22 94.9906 53.22ZM125.992 15.6V60H117.592V15.6H125.992ZM146.112 60.54C143.392 60.54 140.952 60.06 138.792 59.1C136.632 58.1 134.912 56.76 133.632 55.08C132.392 53.4 131.712 51.54 131.592 49.5H140.052C140.212 50.78 140.832 51.84 141.912 52.68C143.032 53.52 144.412 53.94 146.052 53.94C147.652 53.94 148.892 53.62 149.772 52.98C150.692 52.34 151.152 51.52 151.152 50.52C151.152 49.44 150.592 48.64 149.472 48.12C148.392 47.56 146.652 46.96 144.252 46.32C141.772 45.72 139.732 45.1 138.132 44.46C136.572 43.82 135.212 42.84 134.052 41.52C132.932 40.2 132.372 38.42 132.372 36.18C132.372 34.34 132.892 32.66 133.932 31.14C135.012 29.62 136.532 28.42 138.492 27.54C140.492 26.66 142.832 26.22 145.512 26.22C149.472 26.22 152.632 27.22 154.992 29.22C157.352 31.18 158.652 33.84 158.892 37.2H150.852C150.732 35.88 150.172 34.84 149.172 34.08C148.212 33.28 146.912 32.88 145.272 32.88C143.752 32.88 142.572 33.16 141.732 33.72C140.932 34.28 140.532 35.06 140.532 36.06C140.532 37.18 141.092 38.04 142.212 38.64C143.332 39.2 145.072 39.78 147.432 40.38C149.832 40.98 151.812 41.6 153.372 42.24C154.932 42.88 156.272 43.88 157.392 45.24C158.552 46.56 159.152 48.32 159.192 50.52C159.192 52.44 158.652 54.16 157.572 55.68C156.532 57.2 155.012 58.4 153.012 59.28C151.052 60.12 148.752 60.54 146.112 60.54ZM186.984 18.12V60H178.584V18.12H186.984ZM216.06 18.12V44.04C216.06 46.88 216.8 49.06 218.28 50.58C219.76 52.06 221.84 52.8 224.52 52.8C227.24 52.8 229.34 52.06 230.82 50.58C232.3 49.06 233.04 46.88 233.04 44.04V18.12H241.5V43.98C241.5 47.54 240.72 50.56 239.16 53.04C237.64 55.48 235.58 57.32 232.98 58.56C230.42 59.8 227.56 60.42 224.4 60.42C221.28 60.42 218.44 59.8 215.88 58.56C213.36 57.32 211.36 55.48 209.88 53.04C208.4 50.56 207.66 47.54 207.66 43.98V18.12H216.06ZM261.436 60.54C258.716 60.54 256.276 60.06 254.116 59.1C251.956 58.1 250.236 56.76 248.956 55.08C247.716 53.4 247.036 51.54 246.916 49.5H255.376C255.536 50.78 256.156 51.84 257.236 52.68C258.356 53.52 259.736 53.94 261.376 53.94C262.976 53.94 264.216 53.62 265.096 52.98C266.016 52.34 266.476 51.52 266.476 50.52C266.476 49.44 265.916 48.64 264.796 48.12C263.716 47.56 261.976 46.96 259.576 46.32C257.096 45.72 255.056 45.1 253.456 44.46C251.896 43.82 250.536 42.84 249.376 41.52C248.256 40.2 247.696 38.42 247.696 36.18C247.696 34.34 248.216 32.66 249.256 31.14C250.336 29.62 251.856 28.42 253.816 27.54C255.816 26.66 258.156 26.22 260.836 26.22C264.796 26.22 267.956 27.22 270.316 29.22C272.676 31.18 273.976 33.84 274.216 37.2H266.176C266.056 35.88 265.496 34.84 264.496 34.08C263.536 33.28 262.236 32.88 260.596 32.88C259.076 32.88 257.896 33.16 257.056 33.72C256.256 34.28 255.856 35.06 255.856 36.06C255.856 37.18 256.416 38.04 257.536 38.64C258.656 39.2 260.396 39.78 262.756 40.38C265.156 40.98 267.136 41.6 268.696 42.24C270.256 42.88 271.596 43.88 272.716 45.24C273.876 46.56 274.476 48.32 274.516 50.52C274.516 52.44 273.976 54.16 272.896 55.68C271.856 57.2 270.336 58.4 268.336 59.28C266.376 60.12 264.076 60.54 261.436 60.54ZM311.411 42.66C311.411 43.86 311.331 44.94 311.171 45.9H286.871C287.071 48.3 287.911 50.18 289.391 51.54C290.871 52.9 292.691 53.58 294.851 53.58C297.971 53.58 300.191 52.24 301.511 49.56H310.571C309.611 52.76 307.771 55.4 305.051 57.48C302.331 59.52 298.991 60.54 295.031 60.54C291.831 60.54 288.951 59.84 286.391 58.44C283.871 57 281.891 54.98 280.451 52.38C279.051 49.78 278.351 46.78 278.351 43.38C278.351 39.94 279.051 36.92 280.451 34.32C281.851 31.72 283.811 29.72 286.331 28.32C288.851 26.92 291.751 26.22 295.031 26.22C298.191 26.22 301.011 26.9 303.491 28.26C306.011 29.62 307.951 31.56 309.311 34.08C310.711 36.56 311.411 39.42 311.411 42.66ZM302.711 40.26C302.671 38.1 301.891 36.38 300.371 35.1C298.851 33.78 296.991 33.12 294.791 33.12C292.711 33.12 290.951 33.76 289.511 35.04C288.111 36.28 287.251 38.02 286.931 40.26H302.711Z" fill="white"/>
</svg>