<svg width="42" height="43" viewBox="0 0 42 43" fill="none" xmlns="http://www.w3.org/2000/svg">
<g clip-path="url(#clip0_147_295)">
<path d="M22.4044 21.3141L31.856 34.8332H27.9771L20.2644 23.8016V23.8009L19.1321 22.1815L10.1224 9.29395H14.0014L21.2721 19.6947L22.4044 21.3141Z" fill="black"/>
<path d="M37.4618 1.03125H4.53819C2.03188 1.03125 0 3.06313 0 5.56944V38.4931C0 40.9994 2.03188 43.0312 4.53819 43.0312H37.4618C39.9681 43.0312 42 40.9994 42 38.4931V5.56944C42 3.06313 39.9681 1.03125 37.4618 1.03125ZM26.7889 36.6481L18.9842 25.2892L9.21262 36.6481H6.68714L17.8628 23.6579L6.68714 7.39286H15.2111L22.6016 18.1489L31.8546 7.39286H34.3801L23.7233 19.7806H23.7226L35.3129 36.6481H26.7889Z" fill="black"/>
</g>
<defs>
<clipPath id="clip0_147_295">
<rect width="42" height="42" fill="white" transform="translate(0 0.375)"/>
</clipPath>
</defs>
</svg>
